<?xml version="1.0" encoding="UTF-8" standalone="no"?>
<!DOCTYPE svg PUBLIC "-//W3C//DTD SVG 1.1//EN" "http://www.w3.org/Graphics/SVG/1.1/DTD/svg11.dtd">
<svg width="100%" height="100%" viewBox="0 0 827 604" version="1.1" xmlns="http://www.w3.org/2000/svg" xmlns:xlink="http://www.w3.org/1999/xlink" xml:space="preserve" xmlns:serif="http://www.serif.com/" style="fill-rule:evenodd;clip-rule:evenodd;stroke-miterlimit:10;">
    <path d="M523.057,47.921C523.057,44.929 520.628,42.5 517.635,42.5L348.478,42.5C345.486,42.5 343.057,44.929 343.057,47.921L343.057,61.079C343.057,64.071 345.486,66.5 348.478,66.5L517.635,66.5C520.628,66.5 523.057,64.071 523.057,61.079L523.057,47.921Z" style="fill:rgb(66,133,244);"/>
    <path d="M783.057,5.921C783.057,2.929 780.628,0.5 777.635,0.5L326.478,0.5C323.486,0.5 321.057,2.929 321.057,5.921L321.057,526.079C321.057,529.071 323.486,531.5 326.478,531.5L777.635,531.5C780.628,531.5 783.057,529.071 783.057,526.079L783.057,5.921Z" style="fill:none;stroke:rgb(63,61,86);stroke-width:1px;"/>
    <path d="M528.057,40.921C528.057,37.929 525.628,35.5 522.635,35.5L353.478,35.5C350.486,35.5 348.057,37.929 348.057,40.921L348.057,54.079C348.057,57.071 350.486,59.5 353.478,59.5L522.635,59.5C525.628,59.5 528.057,57.071 528.057,54.079L528.057,40.921Z" style="fill:none;stroke:rgb(63,61,86);stroke-width:1px;"/>
    <path d="M727.557,128.921C727.557,125.929 725.128,123.5 722.135,123.5L371.978,123.5C368.986,123.5 366.557,125.929 366.557,128.921L366.557,130.079C366.557,133.071 368.986,135.5 371.978,135.5L722.135,135.5C725.128,135.5 727.557,133.071 727.557,130.079L727.557,128.921Z" style="fill:rgb(242,242,242);"/>
    <path d="M728.057,166.921C728.057,163.929 725.628,161.5 722.635,161.5L372.478,161.5C369.486,161.5 367.057,163.929 367.057,166.921L367.057,168.079C367.057,171.071 369.486,173.5 372.478,173.5L722.635,173.5C725.628,173.5 728.057,171.071 728.057,168.079L728.057,166.921Z" style="fill:rgb(242,242,242);"/>
    <path d="M728.557,204.921C728.557,201.929 726.128,199.5 723.135,199.5L372.978,199.5C369.986,199.5 367.557,201.929 367.557,204.921L367.557,206.079C367.557,209.071 369.986,211.5 372.978,211.5L723.135,211.5C726.128,211.5 728.557,209.071 728.557,206.079L728.557,204.921Z" style="fill:rgb(242,242,242);"/>
    <path d="M732.557,123.921C732.557,120.929 730.128,118.5 727.135,118.5L376.978,118.5C373.986,118.5 371.557,120.929 371.557,123.921L371.557,125.079C371.557,128.071 373.986,130.5 376.978,130.5L727.135,130.5C730.128,130.5 732.557,128.071 732.557,125.079L732.557,123.921Z" style="fill:none;stroke:rgb(63,61,86);stroke-width:1px;"/>
    <path d="M733.057,161.921C733.057,158.929 730.628,156.5 727.635,156.5L377.478,156.5C374.486,156.5 372.057,158.929 372.057,161.921L372.057,163.079C372.057,166.071 374.486,168.5 377.478,168.5L727.635,168.5C730.628,168.5 733.057,166.071 733.057,163.079L733.057,161.921Z" style="fill:none;stroke:rgb(63,61,86);stroke-width:1px;"/>
    <path d="M733.557,199.921C733.557,196.929 731.128,194.5 728.135,194.5L377.978,194.5C374.986,194.5 372.557,196.929 372.557,199.921L372.557,201.079C372.557,204.071 374.986,206.5 377.978,206.5L728.135,206.5C731.128,206.5 733.557,204.071 733.557,201.079L733.557,199.921Z" style="fill:none;stroke:rgb(63,61,86);stroke-width:1px;"/>
    <g transform="matrix(1,0,0,1,-187.097,-148.25)">
        <path d="M341.283,217.842C341.283,217.842 361.493,255.837 358.26,276.047C355.026,296.257 351.792,314.042 358.26,323.743C364.727,333.443 323.498,322.126 323.498,322.126L323.498,265.538L341.283,217.842Z" style="fill:rgb(255,101,132);fill-rule:nonzero;"/>
    </g>
    <g transform="matrix(1,0,0,1,-187.097,-148.25)">
        <path d="M384.533,320.105C384.533,320.105 335.624,374.672 320.265,360.929C304.905,347.186 290.758,314.446 302.076,303.937C308.187,298.262 308.64,287.405 307.767,278.609C307.31,274.059 306.489,269.552 305.309,265.133C304.13,260.714 329.561,257.858 330.37,272.409C330.426,274.119 330.877,275.793 331.687,277.3C336.32,285.521 351.388,281.301 351.388,281.301L384.533,320.105Z" style="fill:rgb(251,190,190);fill-rule:nonzero;"/>
    </g>
    <g transform="matrix(1,0,0,1,-187.097,-148.25)">
        <path d="M348.155,283.727L351.388,281.301C364.304,280.629 377.224,282.553 389.383,286.96C408.785,294.236 442.738,300.703 452.439,298.278C462.139,295.853 485.583,291.002 485.583,291.002C485.583,291.002 511.452,280.493 517.111,293.427C522.77,306.362 482.35,306.362 482.35,306.362C482.35,306.362 453.651,318.084 433.441,316.467C413.231,314.85 386.958,324.147 374.832,314.446C362.706,304.745 348.155,283.727 348.155,283.727Z" style="fill:rgb(251,190,190);fill-rule:nonzero;"/>
    </g>
    <g transform="matrix(1,0,0,1,-187.097,-148.25)">
        <path d="M251.955,592.537L230.128,592.537L222.044,608.705L232.553,620.022C232.553,620.022 252.763,617.597 258.422,611.13C264.081,604.663 251.955,592.537 251.955,592.537Z" style="fill:rgb(251,190,190);fill-rule:nonzero;"/>
    </g>
    <g transform="matrix(1,0,0,1,-187.097,-148.25)">
        <path d="M248.605,592.537C248.605,592.537 257.613,588.495 251.955,583.644C246.296,578.794 241.445,572.327 232.553,578.794C223.66,585.261 180.007,618.406 188.091,629.723C196.175,641.041 198.6,638.616 202.642,636.191C206.684,633.765 219.618,624.065 230.128,624.065C240.637,624.065 236.595,610.322 232.553,606.28C228.511,602.238 245.256,592.537 248.605,592.537Z" style="fill:rgb(63,61,86);fill-rule:nonzero;"/>
    </g>
    <g transform="matrix(1,0,0,1,-187.097,-148.25)">
        <path d="M332.795,696.012L323.902,711.372L332.795,721.073L357.855,721.073C357.855,721.073 349.771,704.905 353.005,697.629C356.239,690.354 332.795,696.012 332.795,696.012Z" style="fill:rgb(251,190,190);fill-rule:nonzero;"/>
    </g>
    <g transform="matrix(1,0,0,1,-187.097,-148.25)">
        <path d="M357.855,707.33C357.855,707.33 348.963,717.031 343.304,715.414C337.645,713.797 327.808,704.626 327.808,704.626C327.808,704.626 313.393,718.648 319.86,725.115C326.328,731.582 352.197,743.708 359.472,748.559C366.748,753.409 391,750.175 390.192,744.517C389.383,738.858 377.257,732.391 371.598,725.115C365.939,717.839 357.855,707.33 357.855,707.33Z" style="fill:rgb(63,61,86);fill-rule:nonzero;"/>
    </g>
    <g transform="matrix(1,0,0,1,-187.097,-148.25)">
        <path d="M400.701,442.174C400.701,442.174 418.486,497.954 394.234,563.434C394.234,563.434 372.407,659.634 364.323,679.036C356.239,698.438 356.239,706.522 356.239,706.522C356.239,706.522 325.519,707.33 327.944,700.863C327.944,700.863 338.454,669.335 338.454,657.209C338.454,645.083 355.43,579.602 355.43,579.602L361.089,439.748L400.701,442.174Z" style="fill:rgb(63,61,86);fill-rule:nonzero;"/>
    </g>
    <g transform="matrix(1,0,0,1,-187.097,-148.25)">
        <path d="M400.701,442.174C400.701,442.174 418.486,497.954 394.234,563.434C394.234,563.434 372.407,659.634 364.323,679.036C356.239,698.438 356.239,706.522 356.239,706.522C356.239,706.522 325.519,707.33 327.944,700.863C327.944,700.863 338.454,669.335 338.454,657.209C338.454,645.083 355.43,579.602 355.43,579.602L361.089,439.748L400.701,442.174Z" style="fill-opacity:0.1;fill-rule:nonzero;"/>
    </g>
    <g transform="matrix(1,0,0,1,-187.097,-148.25)">
        <path d="M396.659,446.216C396.659,446.216 396.659,472.085 379.682,483.402C379.682,483.402 392.617,573.943 376.449,590.92C360.281,607.896 333.603,600.621 333.603,600.621C333.603,600.621 289.141,603.046 255.997,615.98C255.997,615.98 230.128,608.705 251.146,590.112C251.146,590.112 277.015,583.644 285.099,577.986C293.183,572.327 330.37,561.009 340.071,565.859C340.071,565.859 339.262,552.117 336.029,542.416C333.114,533.672 327.945,506.846 327.945,506.846C327.945,506.846 305.309,464.001 327.945,441.365C350.58,418.73 396.659,446.216 396.659,446.216Z" style="fill:rgb(63,61,86);fill-rule:nonzero;"/>
    </g>
    <g transform="matrix(1,0,0,1,-187.097,-148.25)">
        <path d="M331.687,277.3C324.246,281.04 315.572,281.515 307.767,278.609C307.31,274.059 306.489,269.552 305.309,265.133C304.13,260.714 329.561,257.858 330.37,272.409C330.426,274.119 330.877,275.793 331.687,277.3Z" style="fill-opacity:0.1;fill-rule:nonzero;"/>
    </g>
    <circle cx="131.146" cy="99.907" r="29.911" style="fill:rgb(251,190,190);"/>
    <g transform="matrix(1,0,0,1,-187.097,-148.25)">
        <path d="M316.627,359.717C316.627,359.717 350.58,383.969 335.22,409.838C319.86,435.706 324.711,450.258 324.711,450.258C324.711,450.258 353.813,450.258 363.514,456.725C373.215,463.192 403.934,451.875 403.934,451.875C403.934,451.875 408.785,419.538 402.318,404.179C395.85,388.819 392.617,364.567 395.042,359.717C397.467,354.866 403.934,332.231 388.575,319.296L379.83,314.599C379.83,314.599 385.341,337.89 348.155,323.338C348.155,323.338 340.071,371.034 316.627,359.717Z" style="fill:rgb(66,133,244);fill-rule:nonzero;"/>
    </g>
    <path d="M161.478,133.65L162.318,134.531L192.957,166.616L193.903,167.603L193.959,167.788L194.574,169.704L195.802,173.577L190.976,168.225L161.259,135.323L159.95,133.876L161.478,133.65Z" style="fill:rgb(66,133,244);fill-rule:nonzero;"/>
    <g transform="matrix(1,0,0,1,-187.097,-148.25)">
        <path d="M350.721,325.797C350.721,325.797 325.519,303.937 307.734,309.596C289.949,315.254 316.355,363.351 321.746,363.959L323.902,363.759C323.902,363.759 290.758,323.338 309.351,311.212C309.351,311.212 332.795,313.638 350.58,328.189L350.721,325.797Z" style="fill:rgb(66,133,244);fill-rule:nonzero;"/>
    </g>
    <g transform="matrix(1,0,0,1,-187.097,-148.25)">
        <path d="M335.22,320.913L394.234,339.506L492.05,345.165C492.05,345.165 520.345,345.974 515.494,358.908C510.644,371.843 484.775,362.142 484.775,362.142L400.701,363.759C400.701,363.759 331.178,356.483 325.519,352.441C319.86,348.399 328.753,318.488 335.22,320.913Z" style="fill:rgb(251,190,190);fill-rule:nonzero;"/>
    </g>
    <g transform="matrix(1,0,0,1,-187.097,-148.25)">
        <path d="M309.351,273.217C309.351,273.217 306.118,266.75 312.585,259.474C315.877,255.77 318.751,247.876 320.778,241.018C322.699,234.51 329.23,230.4 335.928,231.483C341.716,232.417 347.819,232.715 349.771,230.372C353.813,225.522 348.963,199.653 317.435,205.311C285.907,210.97 265.697,198.036 265.697,228.755C265.697,259.474 285.099,268.367 271.356,299.086C257.613,329.806 230.936,333.039 246.296,353.249C261.655,373.459 302.076,379.118 304.501,371.843C306.926,364.567 294.8,336.273 302.884,324.955C310.968,313.637 324.711,301.511 320.669,294.236C316.627,286.96 309.351,273.217 309.351,273.217Z" style="fill:rgb(255,101,132);fill-rule:nonzero;"/>
    </g>
    <path d="M26.557,603L342.557,603" style="fill:none;fill-rule:nonzero;stroke:rgb(63,61,86);stroke-width:1px;"/>
    <g transform="matrix(1,0,0,1,-187.097,-148.25)">
        <path d="M945.874,313.684C948.154,314.513 950.56,314.937 952.985,314.937C964.403,314.937 973.798,305.541 973.798,294.124C973.798,282.707 964.403,273.312 952.985,273.312C951.527,273.312 950.072,273.465 948.646,273.769L949.167,284.481L944.099,275.301C939.127,277.637 935.281,281.856 933.415,287.023C932.752,288.834 932.349,290.729 932.218,292.653C931.563,301.9 937.161,310.521 945.874,313.684Z" style="fill:rgb(87,184,148);fill-rule:nonzero;"/>
    </g>
    <g transform="matrix(1,0,0,1,-187.097,-148.25)">
        <path d="M970.952,437.928C969.163,428.817 976.915,420.741 984.573,415.491C992.23,410.241 1001.18,405.083 1003.79,396.174C1007.55,383.37 996.36,371.644 987.655,361.532C981.196,354.028 975.649,345.785 971.131,336.975C969.32,333.443 967.656,329.75 967.179,325.809C966.493,320.133 968.316,314.486 970.153,309.072C976.272,291.038 982.815,273.154 989.781,255.422" style="fill:none;fill-rule:nonzero;stroke:rgb(63,61,86);stroke-width:1px;"/>
    </g>
    <g transform="matrix(1,0,0,1,-187.097,-148.25)">
        <path d="M946.732,310.926C949.011,311.755 951.417,312.179 953.842,312.179C965.26,312.179 974.655,302.784 974.655,291.366C974.655,279.949 965.26,270.554 953.842,270.554C952.384,270.554 950.93,270.707 949.503,271.011L950.024,281.723L944.956,272.543C939.984,274.879 936.138,279.098 934.272,284.265C933.609,286.076 933.206,287.971 933.075,289.895C932.42,299.142 938.018,307.763 946.732,310.926Z" style="fill:none;fill-rule:nonzero;stroke:rgb(63,61,86);stroke-width:1px;"/>
    </g>
    <g transform="matrix(1,0,0,1,-187.097,-148.25)">
        <path d="M968.408,251.723C970.821,245.064 976.478,240.08 983.388,238.525L985.102,248.709L988.279,238.013C999.577,238.181 1008.78,247.521 1008.78,258.821C1008.78,270.237 999.386,279.631 987.97,279.631C976.554,279.631 967.16,270.237 967.16,258.821C967.16,256.4 967.582,253.998 968.408,251.723Z" style="fill:rgb(87,184,148);fill-rule:nonzero;"/>
    </g>
    <g transform="matrix(1,0,0,1,-187.097,-148.25)">
        <path d="M969.551,248.045C971.964,241.386 977.621,236.403 984.531,234.848L986.244,245.032L989.421,234.336C1000.72,234.503 1009.92,243.844 1009.92,255.144C1009.92,266.56 1000.53,275.954 989.113,275.954C977.697,275.954 968.303,266.56 968.303,255.144C968.303,252.723 968.725,250.321 969.551,248.045L969.551,248.045Z" style="fill:none;fill-rule:nonzero;stroke:rgb(63,61,86);stroke-width:1px;"/>
    </g>
    <g transform="matrix(1,0,0,1,-187.097,-148.25)">
        <path d="M984.001,361.739C986.276,362.564 988.678,362.986 991.098,362.986C1002.51,362.986 1011.91,353.592 1011.91,342.176C1011.91,335.132 1008.33,328.549 1002.42,324.716L999.979,332.935L998.248,322.632C998.231,322.624 998.213,322.617 998.195,322.612C995.917,321.783 993.511,321.36 991.087,321.36C979.67,321.36 970.275,330.754 970.275,342.171C970.275,350.912 975.783,358.763 984.001,361.739L984.001,361.739Z" style="fill:rgb(87,184,148);fill-rule:nonzero;"/>
    </g>
    <g transform="matrix(1,0,0,1,-187.097,-148.25)">
        <path d="M984.992,358.014C987.266,358.839 989.668,359.261 992.088,359.261C1003.5,359.261 1012.9,349.867 1012.9,338.451C1012.9,331.407 1009.32,324.824 1003.41,320.992L1000.97,329.211L999.238,318.907C999.221,318.899 999.203,318.892 999.185,318.887C996.907,318.059 994.501,317.635 992.077,317.635C980.66,317.635 971.266,327.03 971.266,338.446C971.266,347.187 976.773,355.038 984.992,358.014L984.992,358.014Z" style="fill:none;fill-rule:nonzero;stroke:rgb(63,61,86);stroke-width:1px;"/>
    </g>
    <g transform="matrix(1,0,0,1,-187.097,-148.25)">
        <path d="M962.334,396.301C964.075,406.208 972.764,413.502 982.822,413.502C994.233,413.502 1003.62,404.112 1003.62,392.701C1003.62,381.29 994.233,371.9 982.822,371.9C976.374,371.9 970.28,374.897 966.345,380.004L975.618,393.961L962.948,386.553C961.965,389.706 961.755,393.05 962.334,396.301Z" style="fill:rgb(87,184,148);fill-rule:nonzero;"/>
    </g>
    <g transform="matrix(1,0,0,1,-187.097,-148.25)">
        <path d="M963.192,393.544C964.932,403.45 973.621,410.744 983.679,410.744C995.09,410.744 1004.48,401.354 1004.48,389.943C1004.48,378.532 995.09,369.142 983.679,369.142C977.232,369.142 971.138,372.139 967.202,377.246L976.475,391.203L963.805,383.795C962.823,386.948 962.612,390.292 963.192,393.544Z" style="fill:none;fill-rule:nonzero;stroke:rgb(63,61,86);stroke-width:1px;"/>
    </g>
    <g transform="matrix(4.5108,0,0,3.48342,407.395,248.033)">
        <path d="M26,53L30,49L44,49L55,34L51,31L43,39L24,39L18,45L26,53Z" style="fill:rgb(229,230,235);fill-rule:nonzero;"/>
    </g>
    <g transform="matrix(3.18962,-2.46315,3.18962,2.46315,266.636,347.885)">
        <rect x="14.05" y="44.222" width="9.899" height="15.556" style="fill:rgb(68,125,235);"/>
    </g>
    <g transform="matrix(3.18962,-2.46315,3.18962,2.46315,258.697,362.69)">
        <rect x="18.3" y="54.482" width="9.899" height="3.536" style="fill:rgb(133,180,224);"/>
    </g>
    <g transform="matrix(4.5108,0,0,3.48342,407.395,248.033)">
        <path d="M36,43L36,39L38,39L38,45L30,45L30,43L36,43Z" style="fill:rgb(217,218,226);fill-rule:nonzero;"/>
    </g>
    <g transform="matrix(4.5108,0,0,3.48342,407.395,248.033)">
        <path d="M16,53L19,50L22,53L16,53Z" style="fill:white;fill-rule:nonzero;"/>
    </g>
    <g transform="matrix(4.5108,0,0,3.48342,407.395,248.033)">
        <circle cx="32" cy="27" r="8" style="fill:rgb(2,125,229);"/>
    </g>
    <g transform="matrix(4.5108,0,0,3.48342,407.395,248.033)">
        <circle cx="50" cy="17" r="6" style="fill:rgb(2,125,229);"/>
    </g>
    <g transform="matrix(4.5108,0,0,3.48342,407.395,248.033)">
        <circle cx="15" cy="13" r="4" style="fill:rgb(2,125,229);"/>
    </g>
    <g transform="matrix(4.5108,0,0,3.48342,407.395,248.033)">
        <path d="M34.14,32.114C34.707,31.546 35.026,30.776 35.026,29.973C35.026,29.077 34.628,28.225 33.94,27.65L31.347,25.49C31.113,25.295 30.978,25.007 30.978,24.702C30.978,24.431 31.086,24.17 31.278,23.978C31.682,23.593 32.324,23.593 32.728,23.978L34.296,25.546L35.71,24.132L34.142,22.563C33.82,22.247 33.431,22.007 33.003,21.863L33.003,19.073C32.34,18.981 31.666,18.981 31.003,19.073L31.003,21.862C30.575,22.007 30.185,22.246 29.863,22.562C29.295,23.129 28.976,23.9 28.976,24.703C28.976,25.599 29.375,26.451 30.063,27.026L32.656,29.187C32.89,29.382 33.025,29.67 33.025,29.975C33.025,30.246 32.917,30.506 32.726,30.698C32.328,31.095 31.673,31.095 31.275,30.698L29.707,29.13L28.293,30.544L29.861,32.113C30.183,32.429 30.572,32.669 31,32.813L31,34.926C31.663,35.018 32.337,35.018 33,34.926L33,32.818C33.428,32.672 33.818,32.432 34.14,32.114Z" style="fill:white;fill-rule:nonzero;"/>
    </g>
    <g transform="matrix(4.5108,0,0,3.48342,407.395,248.033)">
        <path d="M32,9L32,16" style="fill:none;fill-rule:nonzero;stroke:rgb(7,210,237);stroke-width:1px;stroke-linejoin:round;stroke-miterlimit:4;"/>
    </g>
    <g transform="matrix(4.5108,0,0,3.48342,407.395,248.033)">
        <path d="M28,7L28,14" style="fill:none;fill-rule:nonzero;stroke:rgb(7,210,237);stroke-width:1px;stroke-linejoin:round;stroke-miterlimit:4;"/>
    </g>
    <g transform="matrix(4.5108,0,0,3.48342,407.395,248.033)">
        <path d="M36,7L36,14" style="fill:none;fill-rule:nonzero;stroke:rgb(7,210,237);stroke-width:1px;stroke-linejoin:round;stroke-miterlimit:4;"/>
    </g>
    <g transform="matrix(4.5108,0,0,3.48342,407.395,248.033)">
        <path d="M15,2L15,6" style="fill:none;fill-rule:nonzero;stroke:rgb(7,210,237);stroke-width:1px;stroke-linejoin:round;stroke-miterlimit:4;"/>
    </g>
    <g transform="matrix(4.5108,0,0,3.48342,407.395,248.033)">
        <path d="M19,2L19,8" style="fill:none;fill-rule:nonzero;stroke:rgb(7,210,237);stroke-width:1px;stroke-linejoin:round;stroke-miterlimit:4;"/>
    </g>
    <g transform="matrix(4.5108,0,0,3.48342,407.395,248.033)">
        <path d="M11,2L11,4" style="fill:none;fill-rule:nonzero;stroke:rgb(7,210,237);stroke-width:1px;stroke-linejoin:round;stroke-miterlimit:4;"/>
    </g>
    <g transform="matrix(4.5108,0,0,3.48342,407.395,248.033)">
        <path d="M46,4L46,9" style="fill:none;fill-rule:nonzero;stroke:rgb(7,210,237);stroke-width:1px;stroke-linejoin:round;stroke-miterlimit:4;"/>
    </g>
    <g transform="matrix(4.5108,0,0,3.48342,407.395,248.033)">
        <path d="M50,3L50,8" style="fill:none;fill-rule:nonzero;stroke:rgb(7,210,237);stroke-width:1px;stroke-linejoin:round;stroke-miterlimit:4;"/>
    </g>
    <g transform="matrix(4.5108,0,0,3.48342,407.395,248.033)">
        <path d="M54,2L54,5" style="fill:none;fill-rule:nonzero;stroke:rgb(7,210,237);stroke-width:1px;stroke-linejoin:round;stroke-miterlimit:4;"/>
    </g>
    <g transform="matrix(4.5108,0,0,3.48342,407.395,248.033)">
        <path d="M55.6,33.2L51.6,30.2C51.204,29.903 50.643,29.943 50.293,30.293L42.586,38L24,38C23.735,38 23.48,38.106 23.293,38.293L18.5,43.086L17.707,42.293C17.319,41.905 16.681,41.905 16.293,42.293L9.293,49.293C8.905,49.681 8.905,50.319 9.293,50.707L20.293,61.707C20.681,62.095 21.319,62.095 21.707,61.707L28.707,54.707C29.095,54.319 29.095,53.681 28.707,53.293L27.914,52.5L30.414,50L44,50C44.318,50 44.619,49.849 44.807,49.592L55.807,34.592C56.129,34.153 56.036,33.527 55.6,33.2ZM21,59.586L11.414,50L17,44.414L26.586,54L21,59.586ZM43.493,48L30,48C29.735,48 29.48,48.106 29.293,48.293L26.5,51.086L19.914,44.5L24.414,40L37,40L37,44L30,44L30,46L38,46C38.549,46 39,45.549 39,45L39,40L43,40C43.265,40 43.52,39.894 43.707,39.707L51.094,32.32L53.608,34.206L43.493,48Z" style="fill-rule:nonzero;"/>
    </g>
    <g transform="matrix(0.0826067,0,0,0.0826067,612.705,285.853)">
        <g id="_x34_5-bitcoin">
            <g>
                <path d="M362.199,243.996C387.112,231.256 402.966,208.606 399.287,170.952C394.473,119.426 352.156,102.156 296.099,97.345L296.099,26.001L252.5,26.001L252.5,95.363C241.175,95.363 229.568,95.646 217.961,95.927L217.961,26.001L174.361,26.001L174.361,97.345C158.332,97.829 139.663,97.593 86.882,97.345L86.882,143.775C121.305,143.166 139.365,140.954 143.505,163.026L143.505,358.37C140.876,375.885 126.862,373.361 95.659,372.808L86.884,424.617C166.379,424.617 174.363,424.901 174.363,424.901L174.363,486L217.964,486L217.964,425.75C229.852,426.035 241.462,426.035 252.503,426.035L252.503,486L296.102,486L296.102,424.9C369.145,420.936 417.973,402.534 424.486,333.74C429.579,278.535 403.531,253.903 362.199,243.996ZM218.811,146.889C243.442,146.889 320.45,139.246 320.45,190.488C320.45,239.467 243.443,233.803 218.811,233.803L218.811,146.889ZM218.811,373.093L218.811,277.402C248.256,277.402 338.419,269.193 338.419,325.249C338.418,379.321 248.255,373.093 218.811,373.093Z" style="fill:white;fill-rule:nonzero;"/>
            </g>
        </g>
    </g>
</svg>
